<?xml version="1.0" encoding="utf-8" standalone="no"?>
<!DOCTYPE svg PUBLIC "-//W3C//DTD SVG 1.1//EN"
  "http://www.w3.org/Graphics/SVG/1.1/DTD/svg11.dtd">
<!-- Created with matplotlib (https://matplotlib.org/) -->
<svg height="345.6pt" version="1.1" viewBox="0 0 460.8 345.6" width="460.8pt" xmlns="http://www.w3.org/2000/svg" xmlns:xlink="http://www.w3.org/1999/xlink">
 <metadata>
  <rdf:RDF xmlns:cc="http://creativecommons.org/ns#" xmlns:dc="http://purl.org/dc/elements/1.1/" xmlns:rdf="http://www.w3.org/1999/02/22-rdf-syntax-ns#">
   <cc:Work>
    <dc:type rdf:resource="http://purl.org/dc/dcmitype/StillImage"/>
    <dc:date>2020-11-08T22:27:21.692158</dc:date>
    <dc:format>image/svg+xml</dc:format>
    <dc:creator>
     <cc:Agent>
      <dc:title>Matplotlib v3.3.2, https://matplotlib.org/</dc:title>
     </cc:Agent>
    </dc:creator>
   </cc:Work>
  </rdf:RDF>
 </metadata>
 <defs>
  <style type="text/css">*{stroke-linecap:butt;stroke-linejoin:round;}</style>
 </defs>
 <g id="figure_1">
  <g id="patch_1">
   <path d="M 0 345.6 
L 460.8 345.6 
L 460.8 0 
L 0 0 
z
" style="fill:#ffffff;"/>
  </g>
  <g id="axes_1">
   <g id="patch_2">
    <path d="M 57.6 307.584 
L 414.72 307.584 
L 414.72 41.472 
L 57.6 41.472 
z
" style="fill:#ffffff;"/>
   </g>
   <g id="matplotlib.axis_1">
    <g id="xtick_1">
     <g id="line2d_1">
      <path clip-path="url(#pfe9505aa8b)" d="M 73.832727 307.584 
L 73.832727 41.472 
" style="fill:none;stroke:#b0b0b0;stroke-linecap:square;stroke-width:0.8;"/>
     </g>
     <g id="line2d_2">
      <defs>
       <path d="M 0 0 
L 0 3.5 
" id="mb4bd186acb" style="stroke:#000000;stroke-width:0.8;"/>
      </defs>
      <g>
       <use style="stroke:#000000;stroke-width:0.8;" x="73.832727" xlink:href="#mb4bd186acb" y="307.584"/>
      </g>
     </g>
     <g id="text_1">
      <!-- 0 -->
      <g transform="translate(70.651477 322.182437)scale(0.1 -0.1)">
       <defs>
        <path d="M 31.78125 66.40625 
Q 24.171875 66.40625 20.328125 58.90625 
Q 16.5 51.421875 16.5 36.375 
Q 16.5 21.390625 20.328125 13.890625 
Q 24.171875 6.390625 31.78125 6.390625 
Q 39.453125 6.390625 43.28125 13.890625 
Q 47.125 21.390625 47.125 36.375 
Q 47.125 51.421875 43.28125 58.90625 
Q 39.453125 66.40625 31.78125 66.40625 
z
M 31.78125 74.21875 
Q 44.046875 74.21875 50.515625 64.515625 
Q 56.984375 54.828125 56.984375 36.375 
Q 56.984375 17.96875 50.515625 8.265625 
Q 44.046875 -1.421875 31.78125 -1.421875 
Q 19.53125 -1.421875 13.0625 8.265625 
Q 6.59375 17.96875 6.59375 36.375 
Q 6.59375 54.828125 13.0625 64.515625 
Q 19.53125 74.21875 31.78125 74.21875 
z
" id="DejaVuSans-48"/>
       </defs>
       <use xlink:href="#DejaVuSans-48"/>
      </g>
     </g>
    </g>
    <g id="xtick_2">
     <g id="line2d_3">
      <path clip-path="url(#pfe9505aa8b)" d="M 130.196364 307.584 
L 130.196364 41.472 
" style="fill:none;stroke:#b0b0b0;stroke-linecap:square;stroke-width:0.8;"/>
     </g>
     <g id="line2d_4">
      <g>
       <use style="stroke:#000000;stroke-width:0.8;" x="130.196364" xlink:href="#mb4bd186acb" y="307.584"/>
      </g>
     </g>
     <g id="text_2">
      <!-- 50 -->
      <g transform="translate(123.833864 322.182437)scale(0.1 -0.1)">
       <defs>
        <path d="M 10.796875 72.90625 
L 49.515625 72.90625 
L 49.515625 64.59375 
L 19.828125 64.59375 
L 19.828125 46.734375 
Q 21.96875 47.46875 24.109375 47.828125 
Q 26.265625 48.1875 28.421875 48.1875 
Q 40.625 48.1875 47.75 41.5 
Q 54.890625 34.8125 54.890625 23.390625 
Q 54.890625 11.625 47.5625 5.09375 
Q 40.234375 -1.421875 26.90625 -1.421875 
Q 22.3125 -1.421875 17.546875 -0.640625 
Q 12.796875 0.140625 7.71875 1.703125 
L 7.71875 11.625 
Q 12.109375 9.234375 16.796875 8.0625 
Q 21.484375 6.890625 26.703125 6.890625 
Q 35.15625 6.890625 40.078125 11.328125 
Q 45.015625 15.765625 45.015625 23.390625 
Q 45.015625 31 40.078125 35.4375 
Q 35.15625 39.890625 26.703125 39.890625 
Q 22.75 39.890625 18.8125 39.015625 
Q 14.890625 38.140625 10.796875 36.28125 
z
" id="DejaVuSans-53"/>
       </defs>
       <use xlink:href="#DejaVuSans-53"/>
       <use x="63.623047" xlink:href="#DejaVuSans-48"/>
      </g>
     </g>
    </g>
    <g id="xtick_3">
     <g id="line2d_5">
      <path clip-path="url(#pfe9505aa8b)" d="M 186.56 307.584 
L 186.56 41.472 
" style="fill:none;stroke:#b0b0b0;stroke-linecap:square;stroke-width:0.8;"/>
     </g>
     <g id="line2d_6">
      <g>
       <use style="stroke:#000000;stroke-width:0.8;" x="186.56" xlink:href="#mb4bd186acb" y="307.584"/>
      </g>
     </g>
     <g id="text_3">
      <!-- 100 -->
      <g transform="translate(177.01625 322.182437)scale(0.1 -0.1)">
       <defs>
        <path d="M 12.40625 8.296875 
L 28.515625 8.296875 
L 28.515625 63.921875 
L 10.984375 60.40625 
L 10.984375 69.390625 
L 28.421875 72.90625 
L 38.28125 72.90625 
L 38.28125 8.296875 
L 54.390625 8.296875 
L 54.390625 0 
L 12.40625 0 
z
" id="DejaVuSans-49"/>
       </defs>
       <use xlink:href="#DejaVuSans-49"/>
       <use x="63.623047" xlink:href="#DejaVuSans-48"/>
       <use x="127.246094" xlink:href="#DejaVuSans-48"/>
      </g>
     </g>
    </g>
    <g id="xtick_4">
     <g id="line2d_7">
      <path clip-path="url(#pfe9505aa8b)" d="M 242.923636 307.584 
L 242.923636 41.472 
" style="fill:none;stroke:#b0b0b0;stroke-linecap:square;stroke-width:0.8;"/>
     </g>
     <g id="line2d_8">
      <g>
       <use style="stroke:#000000;stroke-width:0.8;" x="242.923636" xlink:href="#mb4bd186acb" y="307.584"/>
      </g>
     </g>
     <g id="text_4">
      <!-- 150 -->
      <g transform="translate(233.379886 322.182437)scale(0.1 -0.1)">
       <use xlink:href="#DejaVuSans-49"/>
       <use x="63.623047" xlink:href="#DejaVuSans-53"/>
       <use x="127.246094" xlink:href="#DejaVuSans-48"/>
      </g>
     </g>
    </g>
    <g id="xtick_5">
     <g id="line2d_9">
      <path clip-path="url(#pfe9505aa8b)" d="M 299.287273 307.584 
L 299.287273 41.472 
" style="fill:none;stroke:#b0b0b0;stroke-linecap:square;stroke-width:0.8;"/>
     </g>
     <g id="line2d_10">
      <g>
       <use style="stroke:#000000;stroke-width:0.8;" x="299.287273" xlink:href="#mb4bd186acb" y="307.584"/>
      </g>
     </g>
     <g id="text_5">
      <!-- 200 -->
      <g transform="translate(289.743523 322.182437)scale(0.1 -0.1)">
       <defs>
        <path d="M 19.1875 8.296875 
L 53.609375 8.296875 
L 53.609375 0 
L 7.328125 0 
L 7.328125 8.296875 
Q 12.9375 14.109375 22.625 23.890625 
Q 32.328125 33.6875 34.8125 36.53125 
Q 39.546875 41.84375 41.421875 45.53125 
Q 43.3125 49.21875 43.3125 52.78125 
Q 43.3125 58.59375 39.234375 62.25 
Q 35.15625 65.921875 28.609375 65.921875 
Q 23.96875 65.921875 18.8125 64.3125 
Q 13.671875 62.703125 7.8125 59.421875 
L 7.8125 69.390625 
Q 13.765625 71.78125 18.9375 73 
Q 24.125 74.21875 28.421875 74.21875 
Q 39.75 74.21875 46.484375 68.546875 
Q 53.21875 62.890625 53.21875 53.421875 
Q 53.21875 48.921875 51.53125 44.890625 
Q 49.859375 40.875 45.40625 35.40625 
Q 44.1875 33.984375 37.640625 27.21875 
Q 31.109375 20.453125 19.1875 8.296875 
z
" id="DejaVuSans-50"/>
       </defs>
       <use xlink:href="#DejaVuSans-50"/>
       <use x="63.623047" xlink:href="#DejaVuSans-48"/>
       <use x="127.246094" xlink:href="#DejaVuSans-48"/>
      </g>
     </g>
    </g>
    <g id="xtick_6">
     <g id="line2d_11">
      <path clip-path="url(#pfe9505aa8b)" d="M 355.650909 307.584 
L 355.650909 41.472 
" style="fill:none;stroke:#b0b0b0;stroke-linecap:square;stroke-width:0.8;"/>
     </g>
     <g id="line2d_12">
      <g>
       <use style="stroke:#000000;stroke-width:0.8;" x="355.650909" xlink:href="#mb4bd186acb" y="307.584"/>
      </g>
     </g>
     <g id="text_6">
      <!-- 250 -->
      <g transform="translate(346.107159 322.182437)scale(0.1 -0.1)">
       <use xlink:href="#DejaVuSans-50"/>
       <use x="63.623047" xlink:href="#DejaVuSans-53"/>
       <use x="127.246094" xlink:href="#DejaVuSans-48"/>
      </g>
     </g>
    </g>
    <g id="xtick_7">
     <g id="line2d_13">
      <path clip-path="url(#pfe9505aa8b)" d="M 412.014545 307.584 
L 412.014545 41.472 
" style="fill:none;stroke:#b0b0b0;stroke-linecap:square;stroke-width:0.8;"/>
     </g>
     <g id="line2d_14">
      <g>
       <use style="stroke:#000000;stroke-width:0.8;" x="412.014545" xlink:href="#mb4bd186acb" y="307.584"/>
      </g>
     </g>
     <g id="text_7">
      <!-- 300 -->
      <g transform="translate(402.470795 322.182437)scale(0.1 -0.1)">
       <defs>
        <path d="M 40.578125 39.3125 
Q 47.65625 37.796875 51.625 33 
Q 55.609375 28.21875 55.609375 21.1875 
Q 55.609375 10.40625 48.1875 4.484375 
Q 40.765625 -1.421875 27.09375 -1.421875 
Q 22.515625 -1.421875 17.65625 -0.515625 
Q 12.796875 0.390625 7.625 2.203125 
L 7.625 11.71875 
Q 11.71875 9.328125 16.59375 8.109375 
Q 21.484375 6.890625 26.8125 6.890625 
Q 36.078125 6.890625 40.9375 10.546875 
Q 45.796875 14.203125 45.796875 21.1875 
Q 45.796875 27.640625 41.28125 31.265625 
Q 36.765625 34.90625 28.71875 34.90625 
L 20.21875 34.90625 
L 20.21875 43.015625 
L 29.109375 43.015625 
Q 36.375 43.015625 40.234375 45.921875 
Q 44.09375 48.828125 44.09375 54.296875 
Q 44.09375 59.90625 40.109375 62.90625 
Q 36.140625 65.921875 28.71875 65.921875 
Q 24.65625 65.921875 20.015625 65.03125 
Q 15.375 64.15625 9.8125 62.3125 
L 9.8125 71.09375 
Q 15.4375 72.65625 20.34375 73.4375 
Q 25.25 74.21875 29.59375 74.21875 
Q 40.828125 74.21875 47.359375 69.109375 
Q 53.90625 64.015625 53.90625 55.328125 
Q 53.90625 49.265625 50.4375 45.09375 
Q 46.96875 40.921875 40.578125 39.3125 
z
" id="DejaVuSans-51"/>
       </defs>
       <use xlink:href="#DejaVuSans-51"/>
       <use x="63.623047" xlink:href="#DejaVuSans-48"/>
       <use x="127.246094" xlink:href="#DejaVuSans-48"/>
      </g>
     </g>
    </g>
    <g id="text_8">
     <!-- Generations -->
     <g transform="translate(205.662344 335.860562)scale(0.1 -0.1)">
      <defs>
       <path d="M 59.515625 10.40625 
L 59.515625 29.984375 
L 43.40625 29.984375 
L 43.40625 38.09375 
L 69.28125 38.09375 
L 69.28125 6.78125 
Q 63.578125 2.734375 56.6875 0.65625 
Q 49.8125 -1.421875 42 -1.421875 
Q 24.90625 -1.421875 15.25 8.5625 
Q 5.609375 18.5625 5.609375 36.375 
Q 5.609375 54.25 15.25 64.234375 
Q 24.90625 74.21875 42 74.21875 
Q 49.125 74.21875 55.546875 72.453125 
Q 61.96875 70.703125 67.390625 67.28125 
L 67.390625 56.78125 
Q 61.921875 61.421875 55.765625 63.765625 
Q 49.609375 66.109375 42.828125 66.109375 
Q 29.4375 66.109375 22.71875 58.640625 
Q 16.015625 51.171875 16.015625 36.375 
Q 16.015625 21.625 22.71875 14.15625 
Q 29.4375 6.6875 42.828125 6.6875 
Q 48.046875 6.6875 52.140625 7.59375 
Q 56.25 8.5 59.515625 10.40625 
z
" id="DejaVuSans-71"/>
       <path d="M 56.203125 29.59375 
L 56.203125 25.203125 
L 14.890625 25.203125 
Q 15.484375 15.921875 20.484375 11.0625 
Q 25.484375 6.203125 34.421875 6.203125 
Q 39.59375 6.203125 44.453125 7.46875 
Q 49.3125 8.734375 54.109375 11.28125 
L 54.109375 2.78125 
Q 49.265625 0.734375 44.1875 -0.34375 
Q 39.109375 -1.421875 33.890625 -1.421875 
Q 20.796875 -1.421875 13.15625 6.1875 
Q 5.515625 13.8125 5.515625 26.8125 
Q 5.515625 40.234375 12.765625 48.109375 
Q 20.015625 56 32.328125 56 
Q 43.359375 56 49.78125 48.890625 
Q 56.203125 41.796875 56.203125 29.59375 
z
M 47.21875 32.234375 
Q 47.125 39.59375 43.09375 43.984375 
Q 39.0625 48.390625 32.421875 48.390625 
Q 24.90625 48.390625 20.390625 44.140625 
Q 15.875 39.890625 15.1875 32.171875 
z
" id="DejaVuSans-101"/>
       <path d="M 54.890625 33.015625 
L 54.890625 0 
L 45.90625 0 
L 45.90625 32.71875 
Q 45.90625 40.484375 42.875 44.328125 
Q 39.84375 48.1875 33.796875 48.1875 
Q 26.515625 48.1875 22.3125 43.546875 
Q 18.109375 38.921875 18.109375 30.90625 
L 18.109375 0 
L 9.078125 0 
L 9.078125 54.6875 
L 18.109375 54.6875 
L 18.109375 46.1875 
Q 21.34375 51.125 25.703125 53.5625 
Q 30.078125 56 35.796875 56 
Q 45.21875 56 50.046875 50.171875 
Q 54.890625 44.34375 54.890625 33.015625 
z
" id="DejaVuSans-110"/>
       <path d="M 41.109375 46.296875 
Q 39.59375 47.171875 37.8125 47.578125 
Q 36.03125 48 33.890625 48 
Q 26.265625 48 22.1875 43.046875 
Q 18.109375 38.09375 18.109375 28.8125 
L 18.109375 0 
L 9.078125 0 
L 9.078125 54.6875 
L 18.109375 54.6875 
L 18.109375 46.1875 
Q 20.953125 51.171875 25.484375 53.578125 
Q 30.03125 56 36.53125 56 
Q 37.453125 56 38.578125 55.875 
Q 39.703125 55.765625 41.0625 55.515625 
z
" id="DejaVuSans-114"/>
       <path d="M 34.28125 27.484375 
Q 23.390625 27.484375 19.1875 25 
Q 14.984375 22.515625 14.984375 16.5 
Q 14.984375 11.71875 18.140625 8.90625 
Q 21.296875 6.109375 26.703125 6.109375 
Q 34.1875 6.109375 38.703125 11.40625 
Q 43.21875 16.703125 43.21875 25.484375 
L 43.21875 27.484375 
z
M 52.203125 31.203125 
L 52.203125 0 
L 43.21875 0 
L 43.21875 8.296875 
Q 40.140625 3.328125 35.546875 0.953125 
Q 30.953125 -1.421875 24.3125 -1.421875 
Q 15.921875 -1.421875 10.953125 3.296875 
Q 6 8.015625 6 15.921875 
Q 6 25.140625 12.171875 29.828125 
Q 18.359375 34.515625 30.609375 34.515625 
L 43.21875 34.515625 
L 43.21875 35.40625 
Q 43.21875 41.609375 39.140625 45 
Q 35.0625 48.390625 27.6875 48.390625 
Q 23 48.390625 18.546875 47.265625 
Q 14.109375 46.140625 10.015625 43.890625 
L 10.015625 52.203125 
Q 14.9375 54.109375 19.578125 55.046875 
Q 24.21875 56 28.609375 56 
Q 40.484375 56 46.34375 49.84375 
Q 52.203125 43.703125 52.203125 31.203125 
z
" id="DejaVuSans-97"/>
       <path d="M 18.3125 70.21875 
L 18.3125 54.6875 
L 36.8125 54.6875 
L 36.8125 47.703125 
L 18.3125 47.703125 
L 18.3125 18.015625 
Q 18.3125 11.328125 20.140625 9.421875 
Q 21.96875 7.515625 27.59375 7.515625 
L 36.8125 7.515625 
L 36.8125 0 
L 27.59375 0 
Q 17.1875 0 13.234375 3.875 
Q 9.28125 7.765625 9.28125 18.015625 
L 9.28125 47.703125 
L 2.6875 47.703125 
L 2.6875 54.6875 
L 9.28125 54.6875 
L 9.28125 70.21875 
z
" id="DejaVuSans-116"/>
       <path d="M 9.421875 54.6875 
L 18.40625 54.6875 
L 18.40625 0 
L 9.421875 0 
z
M 9.421875 75.984375 
L 18.40625 75.984375 
L 18.40625 64.59375 
L 9.421875 64.59375 
z
" id="DejaVuSans-105"/>
       <path d="M 30.609375 48.390625 
Q 23.390625 48.390625 19.1875 42.75 
Q 14.984375 37.109375 14.984375 27.296875 
Q 14.984375 17.484375 19.15625 11.84375 
Q 23.34375 6.203125 30.609375 6.203125 
Q 37.796875 6.203125 41.984375 11.859375 
Q 46.1875 17.53125 46.1875 27.296875 
Q 46.1875 37.015625 41.984375 42.703125 
Q 37.796875 48.390625 30.609375 48.390625 
z
M 30.609375 56 
Q 42.328125 56 49.015625 48.375 
Q 55.71875 40.765625 55.71875 27.296875 
Q 55.71875 13.875 49.015625 6.21875 
Q 42.328125 -1.421875 30.609375 -1.421875 
Q 18.84375 -1.421875 12.171875 6.21875 
Q 5.515625 13.875 5.515625 27.296875 
Q 5.515625 40.765625 12.171875 48.375 
Q 18.84375 56 30.609375 56 
z
" id="DejaVuSans-111"/>
       <path d="M 44.28125 53.078125 
L 44.28125 44.578125 
Q 40.484375 46.53125 36.375 47.5 
Q 32.28125 48.484375 27.875 48.484375 
Q 21.1875 48.484375 17.84375 46.4375 
Q 14.5 44.390625 14.5 40.28125 
Q 14.5 37.15625 16.890625 35.375 
Q 19.28125 33.59375 26.515625 31.984375 
L 29.59375 31.296875 
Q 39.15625 29.25 43.1875 25.515625 
Q 47.21875 21.78125 47.21875 15.09375 
Q 47.21875 7.46875 41.1875 3.015625 
Q 35.15625 -1.421875 24.609375 -1.421875 
Q 20.21875 -1.421875 15.453125 -0.5625 
Q 10.6875 0.296875 5.421875 2 
L 5.421875 11.28125 
Q 10.40625 8.6875 15.234375 7.390625 
Q 20.0625 6.109375 24.8125 6.109375 
Q 31.15625 6.109375 34.5625 8.28125 
Q 37.984375 10.453125 37.984375 14.40625 
Q 37.984375 18.0625 35.515625 20.015625 
Q 33.0625 21.96875 24.703125 23.78125 
L 21.578125 24.515625 
Q 13.234375 26.265625 9.515625 29.90625 
Q 5.8125 33.546875 5.8125 39.890625 
Q 5.8125 47.609375 11.28125 51.796875 
Q 16.75 56 26.8125 56 
Q 31.78125 56 36.171875 55.265625 
Q 40.578125 54.546875 44.28125 53.078125 
z
" id="DejaVuSans-115"/>
      </defs>
      <use xlink:href="#DejaVuSans-71"/>
      <use x="77.490234" xlink:href="#DejaVuSans-101"/>
      <use x="139.013672" xlink:href="#DejaVuSans-110"/>
      <use x="202.392578" xlink:href="#DejaVuSans-101"/>
      <use x="263.916016" xlink:href="#DejaVuSans-114"/>
      <use x="305.029297" xlink:href="#DejaVuSans-97"/>
      <use x="366.308594" xlink:href="#DejaVuSans-116"/>
      <use x="405.517578" xlink:href="#DejaVuSans-105"/>
      <use x="433.300781" xlink:href="#DejaVuSans-111"/>
      <use x="494.482422" xlink:href="#DejaVuSans-110"/>
      <use x="557.861328" xlink:href="#DejaVuSans-115"/>
     </g>
    </g>
   </g>
   <g id="matplotlib.axis_2">
    <g id="ytick_1">
     <g id="line2d_15">
      <path clip-path="url(#pfe9505aa8b)" d="M 57.6 287.378492 
L 414.72 287.378492 
" style="fill:none;stroke:#b0b0b0;stroke-linecap:square;stroke-width:0.8;"/>
     </g>
     <g id="line2d_16">
      <defs>
       <path d="M 0 0 
L -3.5 0 
" id="m9ff02fccf5" style="stroke:#000000;stroke-width:0.8;"/>
      </defs>
      <g>
       <use style="stroke:#000000;stroke-width:0.8;" x="57.6" xlink:href="#m9ff02fccf5" y="287.378492"/>
      </g>
     </g>
     <g id="text_9">
      <!-- −2500 -->
      <g transform="translate(16.770313 291.17771)scale(0.1 -0.1)">
       <defs>
        <path d="M 10.59375 35.5 
L 73.1875 35.5 
L 73.1875 27.203125 
L 10.59375 27.203125 
z
" id="DejaVuSans-8722"/>
       </defs>
       <use xlink:href="#DejaVuSans-8722"/>
       <use x="83.789062" xlink:href="#DejaVuSans-50"/>
       <use x="147.412109" xlink:href="#DejaVuSans-53"/>
       <use x="211.035156" xlink:href="#DejaVuSans-48"/>
       <use x="274.658203" xlink:href="#DejaVuSans-48"/>
      </g>
     </g>
    </g>
    <g id="ytick_2">
     <g id="line2d_17">
      <path clip-path="url(#pfe9505aa8b)" d="M 57.6 257.36537 
L 414.72 257.36537 
" style="fill:none;stroke:#b0b0b0;stroke-linecap:square;stroke-width:0.8;"/>
     </g>
     <g id="line2d_18">
      <g>
       <use style="stroke:#000000;stroke-width:0.8;" x="57.6" xlink:href="#m9ff02fccf5" y="257.36537"/>
      </g>
     </g>
     <g id="text_10">
      <!-- 0 -->
      <g transform="translate(44.2375 261.164589)scale(0.1 -0.1)">
       <use xlink:href="#DejaVuSans-48"/>
      </g>
     </g>
    </g>
    <g id="ytick_3">
     <g id="line2d_19">
      <path clip-path="url(#pfe9505aa8b)" d="M 57.6 227.352248 
L 414.72 227.352248 
" style="fill:none;stroke:#b0b0b0;stroke-linecap:square;stroke-width:0.8;"/>
     </g>
     <g id="line2d_20">
      <g>
       <use style="stroke:#000000;stroke-width:0.8;" x="57.6" xlink:href="#m9ff02fccf5" y="227.352248"/>
      </g>
     </g>
     <g id="text_11">
      <!-- 2500 -->
      <g transform="translate(25.15 231.151467)scale(0.1 -0.1)">
       <use xlink:href="#DejaVuSans-50"/>
       <use x="63.623047" xlink:href="#DejaVuSans-53"/>
       <use x="127.246094" xlink:href="#DejaVuSans-48"/>
       <use x="190.869141" xlink:href="#DejaVuSans-48"/>
      </g>
     </g>
    </g>
    <g id="ytick_4">
     <g id="line2d_21">
      <path clip-path="url(#pfe9505aa8b)" d="M 57.6 197.339126 
L 414.72 197.339126 
" style="fill:none;stroke:#b0b0b0;stroke-linecap:square;stroke-width:0.8;"/>
     </g>
     <g id="line2d_22">
      <g>
       <use style="stroke:#000000;stroke-width:0.8;" x="57.6" xlink:href="#m9ff02fccf5" y="197.339126"/>
      </g>
     </g>
     <g id="text_12">
      <!-- 5000 -->
      <g transform="translate(25.15 201.138345)scale(0.1 -0.1)">
       <use xlink:href="#DejaVuSans-53"/>
       <use x="63.623047" xlink:href="#DejaVuSans-48"/>
       <use x="127.246094" xlink:href="#DejaVuSans-48"/>
       <use x="190.869141" xlink:href="#DejaVuSans-48"/>
      </g>
     </g>
    </g>
    <g id="ytick_5">
     <g id="line2d_23">
      <path clip-path="url(#pfe9505aa8b)" d="M 57.6 167.326004 
L 414.72 167.326004 
" style="fill:none;stroke:#b0b0b0;stroke-linecap:square;stroke-width:0.8;"/>
     </g>
     <g id="line2d_24">
      <g>
       <use style="stroke:#000000;stroke-width:0.8;" x="57.6" xlink:href="#m9ff02fccf5" y="167.326004"/>
      </g>
     </g>
     <g id="text_13">
      <!-- 7500 -->
      <g transform="translate(25.15 171.125223)scale(0.1 -0.1)">
       <defs>
        <path d="M 8.203125 72.90625 
L 55.078125 72.90625 
L 55.078125 68.703125 
L 28.609375 0 
L 18.3125 0 
L 43.21875 64.59375 
L 8.203125 64.59375 
z
" id="DejaVuSans-55"/>
       </defs>
       <use xlink:href="#DejaVuSans-55"/>
       <use x="63.623047" xlink:href="#DejaVuSans-53"/>
       <use x="127.246094" xlink:href="#DejaVuSans-48"/>
       <use x="190.869141" xlink:href="#DejaVuSans-48"/>
      </g>
     </g>
    </g>
    <g id="ytick_6">
     <g id="line2d_25">
      <path clip-path="url(#pfe9505aa8b)" d="M 57.6 137.312882 
L 414.72 137.312882 
" style="fill:none;stroke:#b0b0b0;stroke-linecap:square;stroke-width:0.8;"/>
     </g>
     <g id="line2d_26">
      <g>
       <use style="stroke:#000000;stroke-width:0.8;" x="57.6" xlink:href="#m9ff02fccf5" y="137.312882"/>
      </g>
     </g>
     <g id="text_14">
      <!-- 10000 -->
      <g transform="translate(18.7875 141.112101)scale(0.1 -0.1)">
       <use xlink:href="#DejaVuSans-49"/>
       <use x="63.623047" xlink:href="#DejaVuSans-48"/>
       <use x="127.246094" xlink:href="#DejaVuSans-48"/>
       <use x="190.869141" xlink:href="#DejaVuSans-48"/>
       <use x="254.492188" xlink:href="#DejaVuSans-48"/>
      </g>
     </g>
    </g>
    <g id="ytick_7">
     <g id="line2d_27">
      <path clip-path="url(#pfe9505aa8b)" d="M 57.6 107.299761 
L 414.72 107.299761 
" style="fill:none;stroke:#b0b0b0;stroke-linecap:square;stroke-width:0.8;"/>
     </g>
     <g id="line2d_28">
      <g>
       <use style="stroke:#000000;stroke-width:0.8;" x="57.6" xlink:href="#m9ff02fccf5" y="107.299761"/>
      </g>
     </g>
     <g id="text_15">
      <!-- 12500 -->
      <g transform="translate(18.7875 111.098979)scale(0.1 -0.1)">
       <use xlink:href="#DejaVuSans-49"/>
       <use x="63.623047" xlink:href="#DejaVuSans-50"/>
       <use x="127.246094" xlink:href="#DejaVuSans-53"/>
       <use x="190.869141" xlink:href="#DejaVuSans-48"/>
       <use x="254.492188" xlink:href="#DejaVuSans-48"/>
      </g>
     </g>
    </g>
    <g id="ytick_8">
     <g id="line2d_29">
      <path clip-path="url(#pfe9505aa8b)" d="M 57.6 77.286639 
L 414.72 77.286639 
" style="fill:none;stroke:#b0b0b0;stroke-linecap:square;stroke-width:0.8;"/>
     </g>
     <g id="line2d_30">
      <g>
       <use style="stroke:#000000;stroke-width:0.8;" x="57.6" xlink:href="#m9ff02fccf5" y="77.286639"/>
      </g>
     </g>
     <g id="text_16">
      <!-- 15000 -->
      <g transform="translate(18.7875 81.085857)scale(0.1 -0.1)">
       <use xlink:href="#DejaVuSans-49"/>
       <use x="63.623047" xlink:href="#DejaVuSans-53"/>
       <use x="127.246094" xlink:href="#DejaVuSans-48"/>
       <use x="190.869141" xlink:href="#DejaVuSans-48"/>
       <use x="254.492188" xlink:href="#DejaVuSans-48"/>
      </g>
     </g>
    </g>
    <g id="ytick_9">
     <g id="line2d_31">
      <path clip-path="url(#pfe9505aa8b)" d="M 57.6 47.273517 
L 414.72 47.273517 
" style="fill:none;stroke:#b0b0b0;stroke-linecap:square;stroke-width:0.8;"/>
     </g>
     <g id="line2d_32">
      <g>
       <use style="stroke:#000000;stroke-width:0.8;" x="57.6" xlink:href="#m9ff02fccf5" y="47.273517"/>
      </g>
     </g>
     <g id="text_17">
      <!-- 17500 -->
      <g transform="translate(18.7875 51.072736)scale(0.1 -0.1)">
       <use xlink:href="#DejaVuSans-49"/>
       <use x="63.623047" xlink:href="#DejaVuSans-55"/>
       <use x="127.246094" xlink:href="#DejaVuSans-53"/>
       <use x="190.869141" xlink:href="#DejaVuSans-48"/>
       <use x="254.492188" xlink:href="#DejaVuSans-48"/>
      </g>
     </g>
    </g>
    <g id="text_18">
     <!-- Fitness -->
     <g transform="translate(10.690625 191.845187)rotate(-90)scale(0.1 -0.1)">
      <defs>
       <path d="M 9.8125 72.90625 
L 51.703125 72.90625 
L 51.703125 64.59375 
L 19.671875 64.59375 
L 19.671875 43.109375 
L 48.578125 43.109375 
L 48.578125 34.8125 
L 19.671875 34.8125 
L 19.671875 0 
L 9.8125 0 
z
" id="DejaVuSans-70"/>
      </defs>
      <use xlink:href="#DejaVuSans-70"/>
      <use x="50.269531" xlink:href="#DejaVuSans-105"/>
      <use x="78.052734" xlink:href="#DejaVuSans-116"/>
      <use x="117.261719" xlink:href="#DejaVuSans-110"/>
      <use x="180.640625" xlink:href="#DejaVuSans-101"/>
      <use x="242.164062" xlink:href="#DejaVuSans-115"/>
      <use x="294.263672" xlink:href="#DejaVuSans-115"/>
     </g>
    </g>
   </g>
   <g id="line2d_33">
    <path clip-path="url(#pfe9505aa8b)" d="M 73.832727 256.953373 
L 74.96 256.701087 
L 77.214545 256.522414 
L 79.469091 256.413391 
L 81.723636 256.241325 
L 85.105455 256.052158 
L 86.232727 252.900355 
L 87.36 252.427594 
L 88.487273 250.248869 
L 89.614545 249.064121 
L 91.869091 249.093051 
L 92.996364 247.782913 
L 94.123636 248.124596 
L 96.378182 246.820729 
L 97.505455 245.656859 
L 98.632727 245.73928 
L 99.76 244.308041 
L 102.014545 243.205629 
L 103.141818 244.308683 
L 104.269091 243.607865 
L 105.396364 244.103399 
L 106.523636 242.818294 
L 107.650909 242.776759 
L 108.778182 242.949507 
L 109.905455 241.851036 
L 111.032727 242.131892 
L 112.16 242.198758 
L 113.287273 242.820812 
L 114.414545 241.678183 
L 115.541818 241.128096 
L 116.669091 241.916995 
L 117.796364 241.962027 
L 118.923636 241.141919 
L 120.050909 240.66632 
L 121.178182 239.194068 
L 122.305455 239.689273 
L 123.432727 239.566741 
L 124.56 238.973459 
L 125.687273 239.337101 
L 126.814545 236.753654 
L 127.941818 238.921558 
L 129.069091 237.704848 
L 130.196364 237.208844 
L 131.323636 238.132773 
L 132.450909 242.44313 
L 133.578182 242.672746 
L 136.96 242.607721 
L 138.087273 242.321371 
L 139.214545 242.824687 
L 140.341818 242.401958 
L 141.469091 242.832447 
L 142.596364 242.888382 
L 143.723636 242.51052 
L 144.850909 242.740318 
L 145.978182 241.083026 
L 147.105455 237.461263 
L 148.232727 239.205862 
L 149.36 240.237577 
L 151.614545 240.296779 
L 152.741818 240.48288 
L 153.869091 239.538955 
L 154.996364 239.83684 
L 156.123636 239.270354 
L 157.250909 239.518892 
L 158.378182 239.352321 
L 159.505455 238.541414 
L 160.632727 239.770816 
L 161.76 237.243084 
L 162.887273 239.393794 
L 164.014545 238.814606 
L 165.141818 237.765536 
L 166.269091 238.05291 
L 167.396364 237.086995 
L 168.523636 237.254665 
L 170.778182 237.241269 
L 173.032727 235.265006 
L 174.16 235.95002 
L 175.287273 236.296599 
L 176.414545 237.044678 
L 177.541818 236.77968 
L 179.796364 237.135214 
L 180.923636 236.14073 
L 182.050909 234.993688 
L 183.178182 235.699036 
L 184.305455 235.763102 
L 185.432727 236.848247 
L 187.687273 236.825134 
L 188.814545 234.866174 
L 189.941818 235.544449 
L 191.069091 236.752235 
L 192.196364 235.927512 
L 193.323636 235.441115 
L 194.450909 235.399221 
L 195.578182 236.801664 
L 196.705455 236.031999 
L 197.832727 235.819629 
L 198.96 236.469394 
L 200.087273 236.257018 
L 201.214545 234.949968 
L 202.341818 234.775571 
L 203.469091 236.609703 
L 204.596364 235.721201 
L 205.723636 236.509778 
L 206.850909 235.919516 
L 207.978182 236.59044 
L 209.105455 236.278223 
L 210.232727 235.769257 
L 211.36 235.779133 
L 212.487273 234.832667 
L 213.614545 235.704919 
L 214.741818 234.899257 
L 215.869091 235.63443 
L 216.996364 237.013817 
L 218.123636 234.602944 
L 219.250909 233.007611 
L 220.378182 235.796302 
L 222.632727 235.576403 
L 223.76 235.667922 
L 226.014545 236.730152 
L 227.141818 236.794751 
L 228.269091 236.448679 
L 229.396364 235.984578 
L 230.523636 235.961151 
L 231.650909 236.502508 
L 232.778182 236.712478 
L 233.905455 236.560374 
L 235.032727 235.439052 
L 236.16 235.347108 
L 237.287273 236.327477 
L 238.414545 236.537239 
L 239.541818 236.318169 
L 240.669091 236.410682 
L 241.796364 236.769053 
L 242.923636 235.356441 
L 244.050909 235.639297 
L 245.178182 236.729345 
L 246.305455 236.01204 
L 247.432727 234.552026 
L 248.56 235.416116 
L 249.687273 236.832311 
L 250.814545 234.611522 
L 251.941818 234.103878 
L 253.069091 236.383684 
L 254.196364 236.032925 
L 255.323636 235.326135 
L 256.450909 236.291736 
L 257.578182 236.425812 
L 258.705455 234.222758 
L 259.832727 236.220029 
L 260.96 235.399916 
L 262.087273 234.960513 
L 263.214545 235.462827 
L 264.341818 235.063655 
L 265.469091 236.339931 
L 266.596364 235.356365 
L 267.723636 236.58183 
L 268.850909 236.382261 
L 269.978182 235.335365 
L 271.105455 235.416132 
L 272.232727 236.243745 
L 273.36 234.05285 
L 274.487273 236.490702 
L 275.614545 235.291044 
L 276.741818 235.90821 
L 277.869091 234.852993 
L 278.996364 235.020745 
L 280.123636 236.57555 
L 282.378182 231.285029 
L 283.505455 236.297625 
L 284.632727 236.285551 
L 285.76 235.142553 
L 286.887273 232.972728 
L 288.014545 234.164979 
L 289.141818 235.990945 
L 291.396364 236.199632 
L 292.523636 234.041536 
L 293.650909 235.78907 
L 295.905455 235.857708 
L 297.032727 235.859617 
L 298.16 235.254906 
L 299.287273 233.371601 
L 300.414545 235.169625 
L 301.541818 234.965828 
L 302.669091 235.727805 
L 304.923636 235.612941 
L 306.050909 235.880293 
L 307.178182 235.644665 
L 308.305455 234.762984 
L 309.432727 235.755927 
L 310.56 234.100874 
L 311.687273 235.000262 
L 312.814545 235.74487 
L 313.941818 235.820502 
L 315.069091 236.242889 
L 316.196364 236.373656 
L 317.323636 234.87439 
L 318.450909 235.770363 
L 319.578182 235.796536 
L 320.705455 234.40497 
L 321.832727 235.967818 
L 322.96 232.956779 
L 324.087273 236.049078 
L 325.214545 234.328231 
L 326.341818 236.032241 
L 327.469091 235.485407 
L 328.596364 235.562044 
L 329.723636 233.858284 
L 330.850909 234.029878 
L 331.978182 235.284524 
L 333.105455 234.813435 
L 334.232727 234.806579 
L 335.36 235.813396 
L 336.487273 235.406427 
L 337.614545 235.614324 
L 338.741818 235.980701 
L 339.869091 235.24531 
L 340.996364 236.023321 
L 342.123636 235.975243 
L 343.250909 235.027826 
L 344.378182 236.127678 
L 345.505455 235.973745 
L 347.76 235.35254 
L 348.887273 236.088412 
L 350.014545 232.769518 
L 351.141818 234.246342 
L 352.269091 235.178941 
L 353.396364 235.959127 
L 355.650909 236.224627 
L 356.778182 235.927273 
L 357.905455 234.778711 
L 359.032727 235.385039 
L 360.16 234.128858 
L 361.287273 235.047467 
L 362.414545 236.235275 
L 363.541818 235.562604 
L 364.669091 235.160176 
L 365.796364 236.07418 
L 366.923636 234.4347 
L 368.050909 236.057001 
L 369.178182 235.57892 
L 370.305455 232.856894 
L 371.432727 232.232278 
L 372.56 235.068007 
L 373.687273 235.771938 
L 374.814545 233.777354 
L 375.941818 234.635933 
L 377.069091 234.60235 
L 378.196364 235.552439 
L 379.323636 235.292848 
L 380.450909 235.866965 
L 381.578182 234.77008 
L 382.705455 235.525086 
L 383.832727 234.505609 
L 384.96 234.837523 
L 386.087273 234.67686 
L 387.214545 233.827913 
L 388.341818 233.625947 
L 389.469091 235.621349 
L 390.596364 235.828957 
L 391.723636 236.183966 
L 392.850909 232.186828 
L 393.978182 234.751693 
L 395.105455 236.142631 
L 397.36 234.515775 
L 398.487273 235.293884 
L 398.487273 235.293884 
" style="fill:none;stroke:#0000ff;stroke-linecap:square;stroke-width:1.5;"/>
   </g>
   <g id="line2d_34">
    <path clip-path="url(#pfe9505aa8b)" d="M 73.832727 257.580644 
L 76.087273 257.744375 
L 80.596364 257.79929 
L 82.850909 258.017874 
L 83.978182 258.111865 
L 85.105455 258.609476 
L 86.232727 276.168474 
L 87.36 275.717287 
L 88.487273 279.674864 
L 89.614545 280.927175 
L 91.869091 280.950957 
L 92.996364 282.12193 
L 94.123636 282.468935 
L 95.250909 281.884716 
L 96.378182 283.204371 
L 97.505455 284.244196 
L 98.632727 284.257128 
L 99.76 286.165283 
L 100.887273 287.186425 
L 102.014545 287.090193 
L 103.141818 286.581688 
L 104.269091 287.784233 
L 105.396364 288.331614 
L 106.523636 288.510922 
L 107.650909 288.190646 
L 108.778182 288.342898 
L 111.032727 289.221482 
L 112.16 287.688048 
L 113.287273 288.422123 
L 114.414545 288.949398 
L 115.541818 289.756904 
L 116.669091 289.040692 
L 117.796364 289.100959 
L 118.923636 289.780916 
L 120.050909 289.233386 
L 121.178182 289.265831 
L 122.305455 289.574563 
L 123.432727 289.583749 
L 124.56 288.918953 
L 125.687273 289.412642 
L 126.814545 290.679233 
L 127.941818 290.478224 
L 129.069091 290.576738 
L 131.323636 289.545258 
L 132.450909 288.945794 
L 133.578182 289.068133 
L 136.96 288.977864 
L 138.087273 288.685087 
L 139.214545 289.278698 
L 140.341818 288.85662 
L 141.469091 289.300124 
L 142.596364 289.317201 
L 143.723636 288.886989 
L 144.850909 289.166601 
L 145.978182 290.201028 
L 147.105455 292.263287 
L 148.232727 291.277039 
L 149.36 290.950861 
L 151.614545 291.02761 
L 152.741818 291.251021 
L 154.996364 291.945204 
L 156.123636 291.469917 
L 157.250909 291.576207 
L 158.378182 291.40003 
L 159.505455 291.889242 
L 161.76 291.795411 
L 162.887273 291.433427 
L 164.014545 292.38821 
L 165.141818 292.538683 
L 166.269091 292.886742 
L 168.523636 293.265316 
L 170.778182 293.238126 
L 171.905455 293.404894 
L 173.032727 293.726463 
L 174.16 293.410554 
L 175.287273 293.819268 
L 177.541818 293.113607 
L 180.923636 293.746244 
L 182.050909 293.96219 
L 183.178182 293.359038 
L 184.305455 293.653965 
L 187.687273 293.625782 
L 188.814545 293.907842 
L 189.941818 293.488726 
L 191.069091 293.517112 
L 192.196364 293.767116 
L 193.323636 293.408338 
L 194.450909 293.305925 
L 195.578182 293.591312 
L 196.705455 292.672913 
L 197.832727 293.688491 
L 198.96 293.213333 
L 200.087273 294.350725 
L 201.214545 293.843784 
L 202.341818 293.652339 
L 203.469091 293.344409 
L 204.596364 293.57555 
L 205.723636 293.241345 
L 206.850909 293.943082 
L 207.978182 293.32718 
L 209.105455 293.059667 
L 210.232727 293.850914 
L 211.36 293.793077 
L 212.487273 294.302932 
L 213.614545 293.804419 
L 214.741818 294.059649 
L 215.869091 294.013535 
L 216.996364 294.300152 
L 218.123636 294.118471 
L 219.250909 294.639145 
L 220.378182 294.08357 
L 221.505455 293.818608 
L 222.632727 294.088185 
L 223.76 294.094609 
L 224.887273 293.488168 
L 226.014545 294.056115 
L 227.141818 294.134601 
L 229.396364 293.194807 
L 230.523636 294.417928 
L 231.650909 293.815503 
L 232.778182 294.039431 
L 233.905455 293.829488 
L 235.032727 294.139704 
L 236.16 293.971806 
L 238.414545 294.113007 
L 239.541818 293.861213 
L 240.669091 293.974489 
L 241.796364 294.416173 
L 242.923636 293.98918 
L 244.050909 294.381826 
L 245.178182 294.353515 
L 246.305455 293.527684 
L 247.432727 294.488924 
L 248.56 294.404104 
L 249.687273 294.653781 
L 250.814545 294.576282 
L 251.941818 294.006049 
L 253.069091 294.205953 
L 254.196364 293.717741 
L 255.323636 294.285434 
L 256.450909 294.051379 
L 258.705455 294.348876 
L 259.832727 294.17087 
L 260.96 294.595855 
L 262.087273 294.104549 
L 263.214545 294.714027 
L 264.341818 294.210641 
L 267.723636 294.643152 
L 269.978182 294.135728 
L 271.105455 294.532776 
L 273.36 294.0387 
L 274.487273 294.536775 
L 275.614545 294.495756 
L 276.741818 293.883293 
L 277.869091 293.882716 
L 280.123636 294.749446 
L 281.250909 294.559154 
L 282.378182 294.488118 
L 285.76 294.626951 
L 286.887273 294.514575 
L 288.014545 294.776045 
L 289.141818 294.397639 
L 290.269091 294.451896 
L 292.523636 294.791534 
L 293.650909 294.159076 
L 297.032727 294.258779 
L 298.16 295.00114 
L 299.287273 294.972694 
L 301.541818 294.159393 
L 302.669091 294.095406 
L 303.796364 293.915952 
L 304.923636 295.327683 
L 306.050909 294.365496 
L 307.178182 294.037779 
L 308.305455 294.255264 
L 309.432727 294.140469 
L 310.56 294.793975 
L 311.687273 294.657516 
L 312.814545 294.169479 
L 313.941818 294.235373 
L 315.069091 294.776307 
L 316.196364 294.919436 
L 317.323636 294.431205 
L 318.450909 294.209326 
L 319.578182 294.227374 
L 320.705455 293.865486 
L 321.832727 294.451478 
L 322.96 294.742653 
L 324.087273 294.540898 
L 325.214545 293.889192 
L 326.341818 294.548727 
L 327.469091 293.941862 
L 328.596364 293.995606 
L 330.850909 294.730429 
L 331.978182 293.794434 
L 333.105455 294.499786 
L 334.232727 294.31811 
L 335.36 294.329803 
L 336.487273 293.832113 
L 337.614545 295.161085 
L 338.741818 294.443895 
L 339.869091 295.019344 
L 340.996364 294.566387 
L 342.123636 294.478691 
L 344.378182 294.644641 
L 345.505455 294.444784 
L 347.76 293.742219 
L 348.887273 294.613675 
L 350.014545 294.334784 
L 351.141818 295.218698 
L 352.269091 294.928708 
L 353.396364 294.491019 
L 355.650909 294.832118 
L 356.778182 294.494519 
L 357.905455 294.383779 
L 359.032727 295.166919 
L 360.16 295.147523 
L 361.287273 294.885936 
L 362.414545 294.88043 
L 363.541818 294.193075 
L 364.669091 294.832983 
L 365.796364 294.65175 
L 366.923636 295.474413 
L 368.050909 294.654806 
L 369.178182 294.105771 
L 370.305455 294.764642 
L 371.432727 295.152907 
L 372.56 294.642903 
L 373.687273 294.413678 
L 374.814545 294.728649 
L 375.941818 294.411702 
L 379.323636 293.936294 
L 380.450909 294.598313 
L 381.578182 294.628375 
L 382.705455 294.038453 
L 383.832727 294.354989 
L 384.96 293.295485 
L 386.087273 294.461923 
L 387.214545 294.62062 
L 389.469091 294.243255 
L 390.596364 294.485803 
L 391.723636 294.910454 
L 392.850909 295.488 
L 393.978182 294.170623 
L 395.105455 294.821501 
L 396.232727 293.898284 
L 397.36 294.318989 
L 398.487273 293.967295 
L 398.487273 293.967295 
" style="fill:none;stroke:#008000;stroke-dasharray:9.6,2.4,1.5,2.4;stroke-dashoffset:0;stroke-width:1.5;"/>
   </g>
   <g id="line2d_35">
    <path clip-path="url(#pfe9505aa8b)" d="M 73.832727 256.326103 
L 74.96 255.723599 
L 76.087273 255.409802 
L 79.469091 255.031186 
L 82.850909 254.335439 
L 83.978182 254.173778 
L 85.105455 253.494839 
L 86.232727 229.632236 
L 87.36 229.137902 
L 88.487273 220.822875 
L 89.614545 217.201066 
L 90.741818 217.1561 
L 91.869091 217.235144 
L 92.996364 213.443896 
L 94.123636 213.780258 
L 95.250909 213.185166 
L 96.378182 210.437087 
L 97.505455 207.069523 
L 98.632727 207.221431 
L 99.76 202.450799 
L 100.887273 200.24742 
L 102.014545 199.321064 
L 103.141818 202.035678 
L 104.269091 199.431498 
L 105.396364 199.875183 
L 106.523636 197.125666 
L 108.778182 197.556116 
L 109.905455 194.917078 
L 111.032727 195.042302 
L 112.16 196.709468 
L 113.287273 197.219501 
L 114.414545 194.406968 
L 115.541818 192.499288 
L 116.669091 194.793299 
L 117.796364 194.823095 
L 118.923636 192.502922 
L 120.050909 192.099254 
L 121.178182 189.122304 
L 122.305455 189.803983 
L 123.432727 189.549733 
L 124.56 189.027965 
L 125.687273 189.26156 
L 126.814545 182.828075 
L 127.941818 187.364892 
L 129.069091 184.832957 
L 130.196364 184.331037 
L 131.323636 186.720288 
L 132.450909 195.940465 
L 133.578182 196.277358 
L 136.96 196.237579 
L 138.087273 195.957655 
L 139.214545 196.370675 
L 140.341818 195.947297 
L 141.469091 196.36477 
L 142.596364 196.459562 
L 143.723636 196.134051 
L 144.850909 196.314034 
L 145.978182 191.965025 
L 147.105455 182.65924 
L 148.232727 187.134685 
L 149.36 189.524292 
L 151.614545 189.565949 
L 152.741818 189.714739 
L 153.869091 187.451855 
L 154.996364 187.728475 
L 156.123636 187.070792 
L 157.250909 187.461577 
L 158.378182 187.304612 
L 159.505455 185.193586 
L 160.632727 187.67092 
L 161.76 182.690757 
L 162.887273 187.354161 
L 165.141818 182.992389 
L 166.269091 183.219079 
L 167.396364 181.065662 
L 168.523636 181.244015 
L 170.778182 181.244411 
L 171.905455 179.156115 
L 173.032727 176.803548 
L 174.16 178.489486 
L 175.287273 178.773929 
L 176.414545 180.629926 
L 177.541818 180.445753 
L 179.796364 180.734195 
L 180.923636 178.535217 
L 182.050909 176.025186 
L 183.178182 178.039034 
L 184.305455 177.872239 
L 185.432727 180.061303 
L 187.687273 180.024487 
L 188.814545 175.824507 
L 189.941818 177.600173 
L 191.069091 179.987358 
L 192.196364 178.087908 
L 193.323636 177.473891 
L 194.450909 177.492517 
L 195.578182 180.012016 
L 196.705455 179.391084 
L 197.832727 177.950768 
L 198.96 179.725455 
L 200.087273 178.163311 
L 201.214545 176.056151 
L 202.341818 175.898802 
L 203.469091 179.874997 
L 204.596364 177.866851 
L 205.723636 179.778211 
L 206.850909 177.895951 
L 207.978182 179.853699 
L 209.105455 179.496779 
L 210.232727 177.687601 
L 211.36 177.765188 
L 212.487273 175.362401 
L 213.614545 177.605419 
L 214.741818 175.738865 
L 215.869091 177.255325 
L 216.996364 179.727482 
L 218.123636 175.087417 
L 219.250909 171.376076 
L 220.378182 177.509034 
L 221.505455 177.535053 
L 222.632727 177.064621 
L 223.76 177.241234 
L 224.887273 178.986457 
L 226.014545 179.40419 
L 227.141818 179.4549 
L 228.269091 179.18614 
L 229.396364 178.774349 
L 230.523636 177.504374 
L 231.650909 179.189514 
L 232.778182 179.385524 
L 233.905455 179.291259 
L 235.032727 176.738399 
L 236.16 176.722409 
L 237.287273 178.655943 
L 238.414545 178.96147 
L 239.541818 178.775125 
L 240.669091 178.846876 
L 241.796364 179.121934 
L 242.923636 176.723702 
L 244.050909 176.896768 
L 245.178182 179.105175 
L 246.305455 178.496395 
L 247.432727 174.615128 
L 248.56 176.428127 
L 249.687273 179.010841 
L 250.814545 174.646762 
L 251.941818 174.201707 
L 253.069091 178.561415 
L 254.196364 178.348109 
L 255.323636 176.366835 
L 256.450909 178.532093 
L 257.578182 178.614768 
L 258.705455 174.09664 
L 259.832727 178.269188 
L 260.96 176.203977 
L 262.087273 175.816476 
L 263.214545 176.211627 
L 264.341818 175.916668 
L 265.469091 178.334786 
L 266.596364 176.138451 
L 267.723636 178.520508 
L 268.850909 178.331944 
L 269.978182 176.535001 
L 271.105455 176.299488 
L 272.232727 178.24139 
L 273.36 174.066999 
L 274.487273 178.444629 
L 275.614545 176.086332 
L 276.741818 177.933128 
L 277.869091 175.82327 
L 278.996364 175.725532 
L 280.123636 178.401653 
L 282.378182 168.08194 
L 283.505455 178.051151 
L 284.632727 178.046491 
L 285.76 175.658155 
L 286.887273 171.430881 
L 288.014545 173.553913 
L 289.141818 177.584252 
L 291.396364 177.780503 
L 292.523636 173.291538 
L 293.650909 177.419064 
L 294.778182 177.510432 
L 297.032727 177.460454 
L 298.16 175.508672 
L 299.287273 171.770507 
L 300.414545 175.741871 
L 301.541818 175.772263 
L 302.669091 177.360204 
L 303.796364 177.317034 
L 304.923636 175.898198 
L 306.050909 177.395091 
L 307.178182 177.251551 
L 308.305455 175.270704 
L 309.432727 177.371386 
L 310.56 173.407774 
L 312.814545 177.320261 
L 313.941818 177.40563 
L 315.069091 177.709472 
L 316.196364 177.827876 
L 317.323636 175.317575 
L 318.450909 177.331401 
L 319.578182 177.365699 
L 320.705455 174.944453 
L 321.832727 177.484159 
L 322.96 171.170905 
L 324.087273 177.557257 
L 325.214545 174.76727 
L 326.341818 177.515755 
L 327.469091 177.028953 
L 328.596364 177.128482 
L 329.723636 173.338197 
L 330.850909 173.329328 
L 331.978182 176.774615 
L 333.105455 175.127083 
L 334.232727 175.295048 
L 335.36 177.296988 
L 336.487273 176.980741 
L 337.614545 176.067563 
L 338.741818 177.517507 
L 339.869091 175.471277 
L 340.996364 177.480255 
L 342.123636 177.471795 
L 343.250909 175.510584 
L 344.378182 177.610715 
L 345.505455 177.502705 
L 347.76 176.962861 
L 348.887273 177.563149 
L 350.014545 171.204251 
L 353.396364 177.427236 
L 355.650909 177.617135 
L 356.778182 177.360026 
L 357.905455 175.173642 
L 359.032727 175.603159 
L 360.16 173.110193 
L 361.287273 175.208998 
L 362.414545 177.59012 
L 363.541818 176.932132 
L 364.669091 175.487369 
L 365.796364 177.496609 
L 366.923636 173.394988 
L 368.050909 177.459195 
L 369.178182 177.052069 
L 370.305455 170.949146 
L 371.432727 169.311649 
L 372.56 175.493111 
L 373.687273 177.130199 
L 374.814545 172.826059 
L 375.941818 174.860163 
L 377.069091 174.918528 
L 378.196364 176.86177 
L 379.323636 176.649402 
L 380.450909 177.135617 
L 381.578182 174.911785 
L 382.705455 177.011718 
L 383.832727 174.656228 
L 384.96 176.379561 
L 386.087273 174.891797 
L 387.214545 173.035206 
L 388.341818 172.840752 
L 389.469091 176.999444 
L 390.596364 177.17211 
L 391.723636 177.457479 
L 392.850909 168.885656 
L 393.978182 175.332762 
L 395.105455 177.463761 
L 396.232727 176.62197 
L 397.36 174.712562 
L 398.487273 176.620474 
L 398.487273 176.620474 
" style="fill:none;stroke:#008000;stroke-dasharray:9.6,2.4,1.5,2.4;stroke-dashoffset:0;stroke-width:1.5;"/>
   </g>
   <g id="line2d_36">
    <path clip-path="url(#pfe9505aa8b)" d="M 73.832727 252.216298 
L 74.96 249.824341 
L 76.087273 249.605043 
L 80.596364 249.589922 
L 81.723636 248.625636 
L 82.850909 248.06311 
L 83.978182 248.585045 
L 85.105455 238.084811 
L 86.232727 63.388547 
L 98.632727 63.431065 
L 100.887273 63.403373 
L 103.141818 63.426505 
L 104.269091 62.936605 
L 115.541818 62.914451 
L 127.941818 62.91636 
L 180.923636 62.737133 
L 182.050909 58.098735 
L 189.941818 58.10436 
L 228.269091 58.110633 
L 233.905455 58.119456 
L 235.032727 53.572267 
L 244.050909 53.600714 
L 249.687273 53.573795 
L 263.214545 53.593666 
L 276.741818 53.591198 
L 328.596364 53.604813 
L 334.232727 53.583232 
L 338.741818 53.583607 
L 398.487273 53.584959 
L 398.487273 53.584959 
" style="fill:none;stroke:#ff0000;stroke-linecap:square;stroke-width:1.5;"/>
   </g>
   <g id="patch_3">
    <path d="M 57.6 307.584 
L 57.6 41.472 
" style="fill:none;stroke:#000000;stroke-linecap:square;stroke-linejoin:miter;stroke-width:0.8;"/>
   </g>
   <g id="patch_4">
    <path d="M 414.72 307.584 
L 414.72 41.472 
" style="fill:none;stroke:#000000;stroke-linecap:square;stroke-linejoin:miter;stroke-width:0.8;"/>
   </g>
   <g id="patch_5">
    <path d="M 57.6 307.584 
L 414.72 307.584 
" style="fill:none;stroke:#000000;stroke-linecap:square;stroke-linejoin:miter;stroke-width:0.8;"/>
   </g>
   <g id="patch_6">
    <path d="M 57.6 41.472 
L 414.72 41.472 
" style="fill:none;stroke:#000000;stroke-linecap:square;stroke-linejoin:miter;stroke-width:0.8;"/>
   </g>
   <g id="text_19">
    <!-- Population's average and best fitness -->
    <g transform="translate(123.529687 35.472)scale(0.12 -0.12)">
     <defs>
      <path d="M 19.671875 64.796875 
L 19.671875 37.40625 
L 32.078125 37.40625 
Q 38.96875 37.40625 42.71875 40.96875 
Q 46.484375 44.53125 46.484375 51.125 
Q 46.484375 57.671875 42.71875 61.234375 
Q 38.96875 64.796875 32.078125 64.796875 
z
M 9.8125 72.90625 
L 32.078125 72.90625 
Q 44.34375 72.90625 50.609375 67.359375 
Q 56.890625 61.8125 56.890625 51.125 
Q 56.890625 40.328125 50.609375 34.8125 
Q 44.34375 29.296875 32.078125 29.296875 
L 19.671875 29.296875 
L 19.671875 0 
L 9.8125 0 
z
" id="DejaVuSans-80"/>
      <path d="M 18.109375 8.203125 
L 18.109375 -20.796875 
L 9.078125 -20.796875 
L 9.078125 54.6875 
L 18.109375 54.6875 
L 18.109375 46.390625 
Q 20.953125 51.265625 25.265625 53.625 
Q 29.59375 56 35.59375 56 
Q 45.5625 56 51.78125 48.09375 
Q 58.015625 40.1875 58.015625 27.296875 
Q 58.015625 14.40625 51.78125 6.484375 
Q 45.5625 -1.421875 35.59375 -1.421875 
Q 29.59375 -1.421875 25.265625 0.953125 
Q 20.953125 3.328125 18.109375 8.203125 
z
M 48.6875 27.296875 
Q 48.6875 37.203125 44.609375 42.84375 
Q 40.53125 48.484375 33.40625 48.484375 
Q 26.265625 48.484375 22.1875 42.84375 
Q 18.109375 37.203125 18.109375 27.296875 
Q 18.109375 17.390625 22.1875 11.75 
Q 26.265625 6.109375 33.40625 6.109375 
Q 40.53125 6.109375 44.609375 11.75 
Q 48.6875 17.390625 48.6875 27.296875 
z
" id="DejaVuSans-112"/>
      <path d="M 8.5 21.578125 
L 8.5 54.6875 
L 17.484375 54.6875 
L 17.484375 21.921875 
Q 17.484375 14.15625 20.5 10.265625 
Q 23.53125 6.390625 29.59375 6.390625 
Q 36.859375 6.390625 41.078125 11.03125 
Q 45.3125 15.671875 45.3125 23.6875 
L 45.3125 54.6875 
L 54.296875 54.6875 
L 54.296875 0 
L 45.3125 0 
L 45.3125 8.40625 
Q 42.046875 3.421875 37.71875 1 
Q 33.40625 -1.421875 27.6875 -1.421875 
Q 18.265625 -1.421875 13.375 4.4375 
Q 8.5 10.296875 8.5 21.578125 
z
M 31.109375 56 
z
" id="DejaVuSans-117"/>
      <path d="M 9.421875 75.984375 
L 18.40625 75.984375 
L 18.40625 0 
L 9.421875 0 
z
" id="DejaVuSans-108"/>
      <path d="M 17.921875 72.90625 
L 17.921875 45.796875 
L 9.625 45.796875 
L 9.625 72.90625 
z
" id="DejaVuSans-39"/>
      <path id="DejaVuSans-32"/>
      <path d="M 2.984375 54.6875 
L 12.5 54.6875 
L 29.59375 8.796875 
L 46.6875 54.6875 
L 56.203125 54.6875 
L 35.6875 0 
L 23.484375 0 
z
" id="DejaVuSans-118"/>
      <path d="M 45.40625 27.984375 
Q 45.40625 37.75 41.375 43.109375 
Q 37.359375 48.484375 30.078125 48.484375 
Q 22.859375 48.484375 18.828125 43.109375 
Q 14.796875 37.75 14.796875 27.984375 
Q 14.796875 18.265625 18.828125 12.890625 
Q 22.859375 7.515625 30.078125 7.515625 
Q 37.359375 7.515625 41.375 12.890625 
Q 45.40625 18.265625 45.40625 27.984375 
z
M 54.390625 6.78125 
Q 54.390625 -7.171875 48.1875 -13.984375 
Q 42 -20.796875 29.203125 -20.796875 
Q 24.46875 -20.796875 20.265625 -20.09375 
Q 16.0625 -19.390625 12.109375 -17.921875 
L 12.109375 -9.1875 
Q 16.0625 -11.328125 19.921875 -12.34375 
Q 23.78125 -13.375 27.78125 -13.375 
Q 36.625 -13.375 41.015625 -8.765625 
Q 45.40625 -4.15625 45.40625 5.171875 
L 45.40625 9.625 
Q 42.625 4.78125 38.28125 2.390625 
Q 33.9375 0 27.875 0 
Q 17.828125 0 11.671875 7.65625 
Q 5.515625 15.328125 5.515625 27.984375 
Q 5.515625 40.671875 11.671875 48.328125 
Q 17.828125 56 27.875 56 
Q 33.9375 56 38.28125 53.609375 
Q 42.625 51.21875 45.40625 46.390625 
L 45.40625 54.6875 
L 54.390625 54.6875 
z
" id="DejaVuSans-103"/>
      <path d="M 45.40625 46.390625 
L 45.40625 75.984375 
L 54.390625 75.984375 
L 54.390625 0 
L 45.40625 0 
L 45.40625 8.203125 
Q 42.578125 3.328125 38.25 0.953125 
Q 33.9375 -1.421875 27.875 -1.421875 
Q 17.96875 -1.421875 11.734375 6.484375 
Q 5.515625 14.40625 5.515625 27.296875 
Q 5.515625 40.1875 11.734375 48.09375 
Q 17.96875 56 27.875 56 
Q 33.9375 56 38.25 53.625 
Q 42.578125 51.265625 45.40625 46.390625 
z
M 14.796875 27.296875 
Q 14.796875 17.390625 18.875 11.75 
Q 22.953125 6.109375 30.078125 6.109375 
Q 37.203125 6.109375 41.296875 11.75 
Q 45.40625 17.390625 45.40625 27.296875 
Q 45.40625 37.203125 41.296875 42.84375 
Q 37.203125 48.484375 30.078125 48.484375 
Q 22.953125 48.484375 18.875 42.84375 
Q 14.796875 37.203125 14.796875 27.296875 
z
" id="DejaVuSans-100"/>
      <path d="M 48.6875 27.296875 
Q 48.6875 37.203125 44.609375 42.84375 
Q 40.53125 48.484375 33.40625 48.484375 
Q 26.265625 48.484375 22.1875 42.84375 
Q 18.109375 37.203125 18.109375 27.296875 
Q 18.109375 17.390625 22.1875 11.75 
Q 26.265625 6.109375 33.40625 6.109375 
Q 40.53125 6.109375 44.609375 11.75 
Q 48.6875 17.390625 48.6875 27.296875 
z
M 18.109375 46.390625 
Q 20.953125 51.265625 25.265625 53.625 
Q 29.59375 56 35.59375 56 
Q 45.5625 56 51.78125 48.09375 
Q 58.015625 40.1875 58.015625 27.296875 
Q 58.015625 14.40625 51.78125 6.484375 
Q 45.5625 -1.421875 35.59375 -1.421875 
Q 29.59375 -1.421875 25.265625 0.953125 
Q 20.953125 3.328125 18.109375 8.203125 
L 18.109375 0 
L 9.078125 0 
L 9.078125 75.984375 
L 18.109375 75.984375 
z
" id="DejaVuSans-98"/>
      <path d="M 37.109375 75.984375 
L 37.109375 68.5 
L 28.515625 68.5 
Q 23.6875 68.5 21.796875 66.546875 
Q 19.921875 64.59375 19.921875 59.515625 
L 19.921875 54.6875 
L 34.71875 54.6875 
L 34.71875 47.703125 
L 19.921875 47.703125 
L 19.921875 0 
L 10.890625 0 
L 10.890625 47.703125 
L 2.296875 47.703125 
L 2.296875 54.6875 
L 10.890625 54.6875 
L 10.890625 58.5 
Q 10.890625 67.625 15.140625 71.796875 
Q 19.390625 75.984375 28.609375 75.984375 
z
" id="DejaVuSans-102"/>
     </defs>
     <use xlink:href="#DejaVuSans-80"/>
     <use x="56.677734" xlink:href="#DejaVuSans-111"/>
     <use x="117.859375" xlink:href="#DejaVuSans-112"/>
     <use x="181.335938" xlink:href="#DejaVuSans-117"/>
     <use x="244.714844" xlink:href="#DejaVuSans-108"/>
     <use x="272.498047" xlink:href="#DejaVuSans-97"/>
     <use x="333.777344" xlink:href="#DejaVuSans-116"/>
     <use x="372.986328" xlink:href="#DejaVuSans-105"/>
     <use x="400.769531" xlink:href="#DejaVuSans-111"/>
     <use x="461.951172" xlink:href="#DejaVuSans-110"/>
     <use x="525.330078" xlink:href="#DejaVuSans-39"/>
     <use x="552.820312" xlink:href="#DejaVuSans-115"/>
     <use x="604.919922" xlink:href="#DejaVuSans-32"/>
     <use x="636.707031" xlink:href="#DejaVuSans-97"/>
     <use x="697.986328" xlink:href="#DejaVuSans-118"/>
     <use x="757.166016" xlink:href="#DejaVuSans-101"/>
     <use x="818.689453" xlink:href="#DejaVuSans-114"/>
     <use x="859.802734" xlink:href="#DejaVuSans-97"/>
     <use x="921.082031" xlink:href="#DejaVuSans-103"/>
     <use x="984.558594" xlink:href="#DejaVuSans-101"/>
     <use x="1046.082031" xlink:href="#DejaVuSans-32"/>
     <use x="1077.869141" xlink:href="#DejaVuSans-97"/>
     <use x="1139.148438" xlink:href="#DejaVuSans-110"/>
     <use x="1202.527344" xlink:href="#DejaVuSans-100"/>
     <use x="1266.003906" xlink:href="#DejaVuSans-32"/>
     <use x="1297.791016" xlink:href="#DejaVuSans-98"/>
     <use x="1361.267578" xlink:href="#DejaVuSans-101"/>
     <use x="1422.791016" xlink:href="#DejaVuSans-115"/>
     <use x="1474.890625" xlink:href="#DejaVuSans-116"/>
     <use x="1514.099609" xlink:href="#DejaVuSans-32"/>
     <use x="1545.886719" xlink:href="#DejaVuSans-102"/>
     <use x="1581.091797" xlink:href="#DejaVuSans-105"/>
     <use x="1608.875" xlink:href="#DejaVuSans-116"/>
     <use x="1648.083984" xlink:href="#DejaVuSans-110"/>
     <use x="1711.462891" xlink:href="#DejaVuSans-101"/>
     <use x="1772.986328" xlink:href="#DejaVuSans-115"/>
     <use x="1825.085938" xlink:href="#DejaVuSans-115"/>
    </g>
   </g>
   <g id="legend_1">
    <g id="patch_7">
     <path d="M 64.6 205.38425 
L 137.540625 205.38425 
Q 139.540625 205.38425 139.540625 203.38425 
L 139.540625 145.67175 
Q 139.540625 143.67175 137.540625 143.67175 
L 64.6 143.67175 
Q 62.6 143.67175 62.6 145.67175 
L 62.6 203.38425 
Q 62.6 205.38425 64.6 205.38425 
z
" style="fill:#ffffff;opacity:0.8;stroke:#cccccc;stroke-linejoin:miter;"/>
    </g>
    <g id="line2d_37">
     <path d="M 66.6 151.770188 
L 86.6 151.770188 
" style="fill:none;stroke:#0000ff;stroke-linecap:square;stroke-width:1.5;"/>
    </g>
    <g id="line2d_38"/>
    <g id="text_20">
     <!-- average -->
     <g transform="translate(94.6 155.270188)scale(0.1 -0.1)">
      <use xlink:href="#DejaVuSans-97"/>
      <use x="61.279297" xlink:href="#DejaVuSans-118"/>
      <use x="120.458984" xlink:href="#DejaVuSans-101"/>
      <use x="181.982422" xlink:href="#DejaVuSans-114"/>
      <use x="223.095703" xlink:href="#DejaVuSans-97"/>
      <use x="284.375" xlink:href="#DejaVuSans-103"/>
      <use x="347.851562" xlink:href="#DejaVuSans-101"/>
     </g>
    </g>
    <g id="line2d_39">
     <path d="M 66.6 166.448313 
L 86.6 166.448313 
" style="fill:none;stroke:#008000;stroke-dasharray:9.6,2.4,1.5,2.4;stroke-dashoffset:0;stroke-width:1.5;"/>
    </g>
    <g id="line2d_40"/>
    <g id="text_21">
     <!-- -1 sd -->
     <g transform="translate(94.6 169.948313)scale(0.1 -0.1)">
      <defs>
       <path d="M 4.890625 31.390625 
L 31.203125 31.390625 
L 31.203125 23.390625 
L 4.890625 23.390625 
z
" id="DejaVuSans-45"/>
      </defs>
      <use xlink:href="#DejaVuSans-45"/>
      <use x="36.083984" xlink:href="#DejaVuSans-49"/>
      <use x="99.707031" xlink:href="#DejaVuSans-32"/>
      <use x="131.494141" xlink:href="#DejaVuSans-115"/>
      <use x="183.59375" xlink:href="#DejaVuSans-100"/>
     </g>
    </g>
    <g id="line2d_41">
     <path d="M 66.6 181.126438 
L 86.6 181.126438 
" style="fill:none;stroke:#008000;stroke-dasharray:9.6,2.4,1.5,2.4;stroke-dashoffset:0;stroke-width:1.5;"/>
    </g>
    <g id="line2d_42"/>
    <g id="text_22">
     <!-- +1 sd -->
     <g transform="translate(94.6 184.626438)scale(0.1 -0.1)">
      <defs>
       <path d="M 46 62.703125 
L 46 35.5 
L 73.1875 35.5 
L 73.1875 27.203125 
L 46 27.203125 
L 46 0 
L 37.796875 0 
L 37.796875 27.203125 
L 10.59375 27.203125 
L 10.59375 35.5 
L 37.796875 35.5 
L 37.796875 62.703125 
z
" id="DejaVuSans-43"/>
      </defs>
      <use xlink:href="#DejaVuSans-43"/>
      <use x="83.789062" xlink:href="#DejaVuSans-49"/>
      <use x="147.412109" xlink:href="#DejaVuSans-32"/>
      <use x="179.199219" xlink:href="#DejaVuSans-115"/>
      <use x="231.298828" xlink:href="#DejaVuSans-100"/>
     </g>
    </g>
    <g id="line2d_43">
     <path d="M 66.6 195.804563 
L 86.6 195.804563 
" style="fill:none;stroke:#ff0000;stroke-linecap:square;stroke-width:1.5;"/>
    </g>
    <g id="line2d_44"/>
    <g id="text_23">
     <!-- best -->
     <g transform="translate(94.6 199.304563)scale(0.1 -0.1)">
      <use xlink:href="#DejaVuSans-98"/>
      <use x="63.476562" xlink:href="#DejaVuSans-101"/>
      <use x="125" xlink:href="#DejaVuSans-115"/>
      <use x="177.099609" xlink:href="#DejaVuSans-116"/>
     </g>
    </g>
   </g>
  </g>
 </g>
 <defs>
  <clipPath id="pfe9505aa8b">
   <rect height="266.112" width="357.12" x="57.6" y="41.472"/>
  </clipPath>
 </defs>
</svg>
